<svg width="31" height="25" viewBox="0 0 31 25" fill="none" xmlns="http://www.w3.org/2000/svg">
<g clip-path="url(#clip0_42_328)">
<path d="M0 5.20789L0 19.2997C0 22.1759 2.32525 24.5076 5.19358 24.5076H25.3569C28.2252 24.5076 30.5505 22.1759 30.5505 19.2997V5.20789C30.5505 2.33167 28.2252 3.43323e-05 25.3569 3.43323e-05H5.19358C2.32525 3.43323e-05 0 2.33167 0 5.20789Z" fill="#111111"/>
<path d="M0 5.20789L0 19.2997C0 22.1759 2.32525 24.5076 5.19358 24.5076H25.3569C28.2252 24.5076 30.5505 22.1759 30.5505 19.2997V5.20789C30.5505 2.33167 28.2252 3.43323e-05 25.3569 3.43323e-05H5.19358C2.32525 3.43323e-05 0 2.33167 0 5.20789Z" fill="url(#paint0_linear_42_328)"/>
<path d="M7.63757 6.12694C7.63757 5.28099 6.95367 4.59521 6.11004 4.59521C5.26642 4.59521 4.58252 5.28099 4.58252 6.12694C4.58252 6.97288 5.26642 7.65866 6.11004 7.65866C6.95367 7.65866 7.63757 6.97288 7.63757 6.12694Z" fill="url(#paint1_linear_42_328)"/>
<path d="M7.63757 6.12694C7.63757 5.28099 6.95367 4.59521 6.11004 4.59521C5.26642 4.59521 4.58252 5.28099 4.58252 6.12694C4.58252 6.97288 5.26642 7.65866 6.11004 7.65866C6.95367 7.65866 7.63757 6.97288 7.63757 6.12694Z" fill="url(#paint2_linear_42_328)"/>
<path d="M7.63757 6.12694C7.63757 5.28099 6.95367 4.59521 6.11004 4.59521C5.26642 4.59521 4.58252 5.28099 4.58252 6.12694C4.58252 6.97288 5.26642 7.65866 6.11004 7.65866C6.95367 7.65866 7.63757 6.97288 7.63757 6.12694Z" fill="url(#paint3_linear_42_328)"/>
<path d="M7.63757 18.371C7.63757 17.525 6.95367 16.8392 6.11004 16.8392C5.26642 16.8392 4.58252 17.525 4.58252 18.371C4.58252 19.2169 5.26642 19.9027 6.11004 19.9027C6.95367 19.9027 7.63757 19.2169 7.63757 18.371Z" fill="url(#paint4_linear_42_328)"/>
<path d="M25.9679 12.2538C25.9679 11.4078 25.284 10.722 24.4404 10.722C23.5967 10.722 22.9128 11.4078 22.9128 12.2538C22.9128 13.0997 23.5967 13.7855 24.4404 13.7855C25.284 13.7855 25.9679 13.0997 25.9679 12.2538Z" fill="url(#paint5_linear_42_328)"/>
<path d="M25.9679 12.2538C25.9679 11.4078 25.284 10.722 24.4404 10.722C23.5967 10.722 22.9128 11.4078 22.9128 12.2538C22.9128 13.0997 23.5967 13.7855 24.4404 13.7855C25.284 13.7855 25.9679 13.0997 25.9679 12.2538Z" fill="url(#paint6_linear_42_328)"/>
<path d="M24.4404 4.59521H12.2202C11.3765 4.59521 10.6926 5.28099 10.6926 6.12694C10.6926 6.97288 11.3765 7.65866 12.2202 7.65866H24.4404C25.284 7.65866 25.9679 6.97288 25.9679 6.12694C25.9679 5.28099 25.284 4.59521 24.4404 4.59521Z" fill="url(#paint7_linear_42_328)"/>
<path d="M24.4404 16.8392H12.2202C11.3765 16.8392 10.6926 17.525 10.6926 18.371C10.6926 19.2169 11.3765 19.9027 12.2202 19.9027H24.4404C25.284 19.9027 25.9679 19.2169 25.9679 18.371C25.9679 17.525 25.284 16.8392 24.4404 16.8392Z" fill="url(#paint8_linear_42_328)"/>
<path d="M18.3302 10.722H6.11004C5.26642 10.722 4.58252 11.4078 4.58252 12.2538C4.58252 13.0997 5.26642 13.7855 6.11004 13.7855H18.3302C19.1739 13.7855 19.8578 13.0997 19.8578 12.2538C19.8578 11.4078 19.1739 10.722 18.3302 10.722Z" fill="url(#paint9_linear_42_328)"/>
</g>
<defs>
<linearGradient id="paint0_linear_42_328" x1="15.2752" y1="3.74633e-05" x2="15.2752" y2="24.533" gradientUnits="userSpaceOnUse">
<stop stop-color="#1D273D"/>
<stop offset="1" stop-color="#0D0F13"/>
</linearGradient>
<linearGradient id="paint1_linear_42_328" x1="5.05313" y1="7.63768" x2="7.13612" y2="4.86036" gradientUnits="userSpaceOnUse">
<stop stop-color="#4462FE"/>
<stop offset="1" stop-color="#7D69FA"/>
</linearGradient>
<linearGradient id="paint2_linear_42_328" x1="4.85099" y1="7.66014" x2="7.41676" y2="7.52898" gradientUnits="userSpaceOnUse">
<stop stop-color="#3757FD"/>
<stop offset="1" stop-color="#6980FA"/>
</linearGradient>
<linearGradient id="paint3_linear_42_328" x1="4.85099" y1="7.66014" x2="7.41676" y2="7.52898" gradientUnits="userSpaceOnUse">
<stop stop-color="#2447FF"/>
<stop offset="1" stop-color="#6980FA"/>
</linearGradient>
<linearGradient id="paint4_linear_42_328" x1="5.01455" y1="19.4027" x2="7.05897" y2="17.2426" gradientUnits="userSpaceOnUse">
<stop stop-color="#BC3EE6"/>
<stop offset="1" stop-color="#D972F1"/>
</linearGradient>
<linearGradient id="paint5_linear_42_328" x1="23.53" y1="13.2694" x2="25.4201" y2="11.2636" gradientUnits="userSpaceOnUse">
<stop stop-color="#29BDFF"/>
<stop offset="1" stop-color="#96E7FB"/>
</linearGradient>
<linearGradient id="paint6_linear_42_328" x1="23.1582" y1="13.7645" x2="25.8111" y2="13.6376" gradientUnits="userSpaceOnUse">
<stop stop-color="#23BBFF"/>
<stop offset="1" stop-color="#85E7FF"/>
</linearGradient>
<linearGradient id="paint7_linear_42_328" x1="11.9193" y1="7.63768" x2="24.4944" y2="4.62891" gradientUnits="userSpaceOnUse">
<stop stop-color="#23BBFF"/>
<stop offset="1" stop-color="#85E7FF"/>
</linearGradient>
<linearGradient id="paint8_linear_42_328" x1="12.035" y1="19.9042" x2="24.1086" y2="16.8182" gradientUnits="userSpaceOnUse">
<stop stop-color="#2447FF"/>
<stop offset="1" stop-color="#6980FA"/>
</linearGradient>
<linearGradient id="paint9_linear_42_328" x1="6.63466" y1="13.8094" x2="18.1682" y2="10.7235" gradientUnits="userSpaceOnUse">
<stop stop-color="#6634FF"/>
<stop offset="1" stop-color="#9C6DFF"/>
</linearGradient>
<clipPath id="clip0_42_328">
<rect width="30.5505" height="24.5075" fill="white"/>
</clipPath>
</defs>
</svg>
