<?xml version="1.0" encoding="utf-8"?>
<svg id="Layer_1" data-name="Layer 1" viewBox="0 0 310 310" xmlns="http://www.w3.org/2000/svg">
  <title>gnosis_safe_teams_2019_logo_all_rgb</title>
  <path d="M 155.089 8.46 C 42.282 8.475 -28.205 130.601 28.211 228.287 C 84.628 325.973 225.636 325.954 282.026 228.253 C 294.881 205.98 301.649 180.716 301.649 155 C 301.649 74.061 236.028 8.449 155.089 8.46 Z M 262.359 163 L 194.359 163 C 188.116 194.26 150.374 207.039 126.423 186.002 C 102.473 164.965 110.277 125.89 140.471 115.667 C 164.845 107.414 190.764 123.156 194.679 148.59 L 262.359 148.59 C 267.905 148.383 271.596 154.258 269.001 159.165 C 267.707 161.613 265.126 163.103 262.359 163 Z"/>
</svg>